<svg width="24" height="24" viewBox="0 0 24 24" fill="none" xmlns="http://www.w3.org/2000/svg">
<path d="M15.0936 16.1539L14.7874 15.8478L14.4406 16.1071C12.7702 17.3562 10.6886 17.9262 8.61488 17.7024C6.54114 17.4786 4.62913 16.4777 3.26365 14.901C1.89817 13.3243 1.18058 11.2889 1.2553 9.20446C1.33002 7.12002 2.1915 5.14124 3.66637 3.66637C5.14124 2.1915 7.12002 1.33002 9.20446 1.2553C11.2889 1.18058 13.3243 1.89817 14.901 3.26365C16.4777 4.62913 17.4786 6.54114 17.7024 8.61488C17.9262 10.6886 17.3562 12.7702 16.1071 14.4406L15.8478 14.7874L16.1539 15.0936L22.6155 21.5551C22.7504 21.6962 22.8251 21.8845 22.8234 22.0799C22.8216 22.2766 22.7428 22.4647 22.6037 22.6037C22.4647 22.7428 22.2766 22.8216 22.0799 22.8234C21.8845 22.8251 21.6962 22.7504 21.5551 22.6155L15.0936 16.1539ZM14.273 14.273C15.5388 13.0071 16.25 11.2902 16.25 9.5C16.25 7.70979 15.5388 5.9929 14.273 4.72703C13.0071 3.46116 11.2902 2.75 9.5 2.75C7.70979 2.75 5.9929 3.46116 4.72703 4.72703C3.46116 5.9929 2.75 7.70979 2.75 9.5C2.75 11.2902 3.46116 13.0071 4.72703 14.273C5.9929 15.5388 7.70979 16.25 9.5 16.25C11.2902 16.25 13.0071 15.5388 14.273 14.273Z" fill="#6F7483" stroke="#6F7483"/>
</svg>
