<svg width="40" height="38" viewBox="0 0 40 38" fill="none" xmlns="http://www.w3.org/2000/svg">
<path d="M33.443 18.5285H37.756C39.9248 18.5285 40.8277 15.569 39.0734 14.2109L21.3174 0.456198C20.9345 0.159702 20.4734 0 20 0C19.5266 0 19.0655 0.159702 18.6826 0.456198L0.9266 14.2085C-0.827713 15.569 0.0752086 18.5261 2.24402 18.5261H6.55698V35.2333C6.55698 35.8663 6.79304 36.4733 7.21321 36.9209C7.63339 37.3685 8.20327 37.62 8.79749 37.62H15.519V23.2996H24.481V37.62H31.2025C31.7967 37.62 32.3666 37.3685 32.7868 36.9209C33.207 36.4733 33.443 35.8663 33.443 35.2333V18.5261V18.5285Z" fill="#6F7483"/>
</svg>
