<svg width="35" height="35" viewBox="0 0 35 35" fill="none" xmlns="http://www.w3.org/2000/svg">
<path d="M27.9896 0.609972C27.5989 0.219407 27.0691 0 26.5167 0C25.9642 0 25.4344 0.219407 25.0438 0.609972L22.0979 3.55789L30.9354 12.3954L33.8813 9.44956C34.2718 9.05887 34.4912 8.52906 34.4912 7.97664C34.4912 7.42421 34.2718 6.8944 33.8813 6.50372L27.9896 0.609972ZM27.9896 15.3433L19.15 6.50372L0.608334 25.0454C0.21888 25.4358 0.000117162 25.9648 0 26.5162V32.41C0 32.9625 0.219494 33.4924 0.610195 33.8831C1.0009 34.2738 1.5308 34.4933 2.08333 34.4933H7.975C8.52749 34.4932 9.05731 34.2736 9.44792 33.8829L27.9896 15.3412V15.3433Z" fill="#D5DFFC"/>
</svg>
