<svg width="30" height="30" viewBox="0 0 30 30" fill="none" xmlns="http://www.w3.org/2000/svg">
<path d="M18.9462 20.5881L18.6401 20.2819L18.2933 20.5413C16.04 22.2262 13.2321 22.9951 10.4348 22.6932C7.63742 22.3914 5.05824 21.0412 3.21629 18.9143C1.37434 16.7875 0.406357 14.0419 0.50715 11.2301C0.607943 8.41829 1.77003 5.74905 3.75954 3.75954C5.74905 1.77003 8.41829 0.607943 11.2301 0.50715C14.0419 0.406357 16.7875 1.37434 18.9143 3.21629C21.0412 5.05824 22.3914 7.63742 22.6932 10.4348C22.9951 13.2321 22.2262 16.04 20.5413 18.2933L20.2819 18.6401L20.5881 18.9462L29.1768 27.5349C29.3866 27.7536 29.5026 28.0457 29.5 28.3488C29.4973 28.6533 29.3752 28.9446 29.1599 29.1599C28.9446 29.3752 28.6533 29.4973 28.3488 29.5C28.0457 29.5026 27.7536 29.3866 27.5349 29.1768L18.9462 20.5881ZM17.8557 17.8557C19.5072 16.2042 20.435 13.9643 20.435 11.6287C20.435 9.29317 19.5072 7.05327 17.8557 5.40178C16.2042 3.75029 13.9643 2.82249 11.6287 2.82249C9.29317 2.82249 7.05327 3.75029 5.40178 5.40178C3.75029 7.05327 2.82249 9.29317 2.82249 11.6287C2.82249 13.9643 3.75029 16.2042 5.40178 17.8557C7.05327 19.5072 9.29317 20.435 11.6287 20.435C13.9643 20.435 16.2042 19.5072 17.8557 17.8557Z" fill="#D5DFFC" stroke="#D5DFFC"/>
</svg>
