<svg width="38" height="38" viewBox="0 0 38 38" fill="none" xmlns="http://www.w3.org/2000/svg">
<path fill-rule="evenodd" clip-rule="evenodd" d="M17.8292 0.25C16.5333 0.25 15.4833 1.3 15.4833 2.59375L15.2021 4.5625C15.1444 4.96523 14.9829 5.34601 14.7334 5.66738C14.484 5.98876 14.1552 6.23967 13.7793 6.39543C13.4035 6.55119 12.9936 6.60643 12.5899 6.55573C12.1862 6.50503 11.8027 6.35012 11.4771 6.10625L9.88542 4.9125C9.66778 4.69486 9.4094 4.52222 9.12505 4.40443C8.84069 4.28665 8.53591 4.22602 8.22813 4.22602C7.92034 4.22602 7.61556 4.28665 7.3312 4.40443C7.04684 4.52222 6.78847 4.69486 6.57083 4.9125L4.9125 6.57083C3.99583 7.4875 3.99583 8.96875 4.9125 9.88333L6.10625 11.4771C6.35009 11.8026 6.50503 12.1859 6.55584 12.5895C6.60665 12.993 6.55159 13.4028 6.39606 13.7786C6.24053 14.1543 5.98989 14.4832 5.66878 14.7328C5.34767 14.9824 4.96713 15.1441 4.56458 15.2021L2.59375 15.4854C1.3 15.4854 0.25 16.5333 0.25 17.8271V20.1729C0.25 21.4646 1.3 22.5146 2.59375 22.5146L4.5625 22.7979C4.96523 22.8556 5.34601 23.0171 5.66738 23.2666C5.98876 23.516 6.23967 23.8448 6.39543 24.2207C6.55119 24.5965 6.60643 25.0064 6.55573 25.4101C6.50503 25.8138 6.35012 26.1973 6.10625 26.5229L4.9125 28.1146C3.99583 29.0312 3.99583 30.5146 4.9125 31.4292L6.57083 33.0875C7.4875 34.0042 8.96875 34.0042 9.88333 33.0875L11.4771 31.8937C11.8026 31.6499 12.1859 31.495 12.5895 31.4442C12.993 31.3933 13.4028 31.4484 13.7786 31.6039C14.1543 31.7595 14.4832 32.0101 14.7328 32.3312C14.9824 32.6523 15.1441 33.0329 15.2021 33.4354L15.4854 35.4062C15.4854 36.7 16.5333 37.75 17.8271 37.75H20.1729C21.4646 37.75 22.5146 36.7 22.5146 35.4062L22.7979 33.4375C22.8556 33.0348 23.0171 32.654 23.2666 32.3326C23.516 32.0112 23.8448 31.7603 24.2207 31.6046C24.5965 31.4488 25.0064 31.3936 25.4101 31.4443C25.8138 31.495 26.1973 31.6499 26.5229 31.8937L28.1146 33.0875C29.0312 34.0042 30.5146 34.0042 31.4292 33.0875L33.0875 31.4292C34.0021 30.5125 34.0021 29.0312 33.0875 28.1167L31.8937 26.5229C31.6499 26.1974 31.495 25.8141 31.4442 25.4105C31.3933 25.007 31.4484 24.5972 31.6039 24.2214C31.7595 23.8457 32.0101 23.5168 32.3312 23.2672C32.6523 23.0176 33.0329 22.8559 33.4354 22.7979L35.4062 22.5146C36.7 22.5146 37.75 21.4667 37.75 20.1729V17.8271C37.75 16.5354 36.7 15.4854 35.4062 15.4854L33.4375 15.2021C33.0348 15.1444 32.654 14.9829 32.3326 14.7334C32.0112 14.484 31.7603 14.1552 31.6046 13.7793C31.4488 13.4035 31.3936 12.9936 31.4443 12.5899C31.495 12.1862 31.6499 11.8027 31.8937 11.4771L33.0875 9.88542C34.0021 8.96875 34.0021 7.48542 33.0875 6.57083L31.4292 4.9125C30.9897 4.47359 30.394 4.22706 29.7729 4.22706C29.1518 4.22706 28.5561 4.47359 28.1167 4.9125L26.5229 6.10625C26.1974 6.35009 25.8141 6.50503 25.4105 6.55584C25.007 6.60665 24.5972 6.55159 24.2214 6.39606C23.8457 6.24053 23.5168 5.98989 23.2672 5.66878C23.0176 5.34767 22.8559 4.96713 22.7979 4.56458L22.5146 2.59375C22.5146 1.3 21.4667 0.25 20.1729 0.25H17.8292ZM19 23.6875C20.2432 23.6875 21.4355 23.1936 22.3146 22.3146C23.1936 21.4355 23.6875 20.2432 23.6875 19C23.6875 17.7568 23.1936 16.5645 22.3146 15.6854C21.4355 14.8064 20.2432 14.3125 19 14.3125C17.7568 14.3125 16.5645 14.8064 15.6854 15.6854C14.8064 16.5645 14.3125 17.7568 14.3125 19C14.3125 20.2432 14.8064 21.4355 15.6854 22.3146C16.5645 23.1936 17.7568 23.6875 19 23.6875Z" fill="#D5DFFC"/>
</svg>
